<?xml version="1.0" standalone="no"?>
<!DOCTYPE svg PUBLIC "-//W3C//DTD SVG 20010904//EN"
 "http://www.w3.org/TR/2001/REC-SVG-20010904/DTD/svg10.dtd">
<svg version="1.0" xmlns="http://www.w3.org/2000/svg"
 width="200.000000pt" height="200.000000pt" viewBox="0 0 200.000000 200.000000"
 preserveAspectRatio="xMidYMid meet">
<metadata>
Created by potrace 1.11, written by Peter Selinger 2001-2013
</metadata>
<g transform="translate(0.000000,200.000000) scale(0.100000,-0.100000)"
fill="#000000" stroke="none">
<path d="M895 1938 c-38 -5 -81 -11 -95 -12 -14 -2 -38 -9 -55 -16 -16 -6 -38
-12 -47 -13 -10 -1 -18 -6 -18 -11 0 -5 -3 -6 -6 -3 -4 3 -16 1 -28 -5 -11 -7
-23 -13 -26 -13 -15 -2 -86 -40 -92 -49 -4 -6 -8 -7 -8 -3 0 4 -10 -1 -22 -13
-12 -11 -26 -20 -30 -20 -13 0 -88 -62 -88 -72 0 -4 18 -8 40 -8 22 0 62 -9
90 -19 27 -11 50 -17 50 -14 0 3 11 -6 25 -21 13 -14 27 -25 29 -24 15 9 78
-100 94 -162 11 -42 9 -189 -3 -245 -7 -34 -6 -38 6 -29 45 35 303 -48 357
-115 35 -43 60 -91 71 -134 16 -65 24 -247 11 -247 -5 0 -10 -4 -10 -8 0 -5
16 -9 35 -10 20 -1 40 -4 46 -8 5 -3 27 -7 48 -9 21 -2 47 -7 57 -13 11 -5 25
-7 31 -5 7 3 16 -2 19 -11 3 -9 10 -13 15 -10 10 6 69 -34 104 -71 21 -22 52
-84 61 -125 4 -14 7 -62 8 -107 0 -46 4 -83 8 -83 4 0 13 7 22 15 8 8 18 15
23 15 5 0 32 26 61 58 29 31 59 64 67 73 8 9 15 21 15 27 0 6 6 15 14 19 7 4
21 22 30 38 9 17 30 54 46 83 17 29 28 57 25 62 -3 4 -1 10 5 12 6 2 12 13 15
26 2 12 7 28 11 34 5 7 9 19 10 28 2 8 10 44 19 80 32 125 20 363 -23 471 -6
15 -8 30 -5 33 4 3 1 6 -6 6 -8 0 -11 7 -7 15 3 9 -1 18 -10 22 -8 3 -13 12
-10 19 3 7 1 16 -4 19 -6 4 -11 16 -12 28 -1 12 -4 -9 -7 -48 -6 -64 -8 -70
-30 -73 -17 -3 -21 0 -16 10 5 7 4 10 0 5 -5 -4 -8 -45 -7 -91 0 -68 -2 -86
-15 -90 -12 -5 -13 -9 -3 -21 16 -20 5 -45 -20 -45 -17 0 -19 -4 -14 -25 13
-51 10 -60 -18 -63 -28 -3 -28 -3 -28 -85 0 -94 -8 -113 -41 -104 -13 3 -28 2
-35 -4 -24 -20 -45 19 -43 80 3 117 3 118 -31 113 -33 -5 -34 -1 -14 66 5 18
2 22 -14 22 -28 0 -33 11 -22 51 8 31 8 32 -5 15 -14 -18 -15 -18 -26 10 -7
18 -13 24 -16 16 -3 -8 0 -19 6 -25 6 -6 11 -24 11 -40 0 -26 -3 -29 -25 -25
-13 3 -22 1 -19 -4 3 -5 7 -19 9 -31 1 -12 4 -29 6 -37 3 -11 -6 -16 -29 -18
l-33 -3 1 -67 c2 -113 2 -119 -20 -125 -12 -3 -24 1 -30 11 -5 10 -10 12 -10
5 0 -7 -11 -13 -25 -13 -28 0 -28 -1 -26 113 l1 77 -34 0 c-37 0 -37 0 -21 63
6 21 4 27 -9 27 -29 0 -29 28 -1 116 27 84 59 125 85 109 17 -11 11 11 -9 29
-12 11 -17 25 -13 38 3 14 1 19 -6 14 -7 -4 -12 -22 -12 -41 0 -18 -6 -40 -14
-47 -7 -8 -17 -25 -21 -38 -4 -14 -13 -34 -20 -45 -6 -11 -15 -42 -20 -70 -9
-62 -12 -67 -33 -56 -15 8 -17 26 -17 124 l1 115 -26 -1 c-25 -2 -25 -1 -28
83 -4 123 -1 130 53 130 25 0 45 5 45 10 0 6 -4 10 -10 10 -5 0 -14 9 -20 21
-14 26 11 69 40 69 45 0 71 -58 36 -82 -16 -11 13 -28 47 -28 15 0 27 -6 28
-12 0 -7 3 -31 5 -53 3 -29 0 -43 -13 -52 -19 -15 -5 -16 37 -4 55 16 81 -70
30 -96 -25 -13 -25 -13 -2 -14 12 -1 27 -2 34 -3 7 -1 13 16 15 41 2 35 -2 47
-25 70 -24 24 -28 34 -24 70 4 46 20 57 75 55 l29 -1 -22 19 c-45 39 -3 113
50 87 29 -15 39 -71 15 -81 -18 -7 -20 -28 -2 -25 36 5 66 -3 72 -18 10 -27 6
-185 -6 -199 -6 -7 -17 -10 -25 -7 -11 4 -14 -4 -14 -35 0 -49 15 -63 24 -22
6 34 41 53 83 45 14 -2 22 -1 18 3 -3 4 -10 7 -13 8 -4 0 -15 4 -24 8 -25 11
-24 72 1 88 13 8 17 17 12 27 -7 14 -7 60 -1 69 2 1 3 5 4 10 4 21 21 33 42
29 14 -2 25 1 28 9 3 8 1 14 -4 14 -11 0 -13 40 -4 64 3 9 11 13 16 10 6 -4 9
-1 6 7 -13 40 -212 183 -331 237 -125 58 -336 88 -482 70z"/>
<path d="M302 1643 c-24 -24 -47 -73 -34 -73 4 0 20 14 35 30 16 17 33 30 37
30 5 0 14 8 19 18 14 26 -30 22 -57 -5z"/>
<path d="M451 1623 c-6 -10 -11 -14 -11 -10 0 4 -13 -5 -28 -20 -16 -15 -54
-50 -86 -77 -31 -26 -55 -53 -53 -59 4 -12 37 -19 37 -7 0 4 42 44 94 87 71
60 92 83 83 92 -15 15 -24 14 -36 -6z"/>
<path d="M544 1557 c-6 -7 -22 -21 -35 -32 -13 -12 -60 -52 -104 -90 -44 -38
-82 -70 -84 -72 -3 -2 2 -10 11 -19 14 -14 26 -6 124 76 140 118 136 114 128
133 -7 20 -24 21 -40 4z"/>
<path d="M195 1503 c-11 -21 -22 -40 -25 -43 -14 -14 -60 -120 -60 -139 0 -12
-7 -24 -15 -27 -8 -4 -13 -9 -10 -13 2 -4 -5 -43 -16 -87 -23 -88 -30 -294
-12 -354 6 -19 16 -62 23 -95 7 -33 17 -64 22 -70 4 -5 8 -15 8 -23 0 -33 118
-233 160 -272 9 -8 21 -24 26 -35 15 -33 18 551 3 598 -21 65 -10 72 117 72
117 1 147 -2 139 -15 -3 -5 -1 -11 5 -15 6 -4 4 -18 -6 -38 -15 -27 -17 -76
-16 -377 0 -321 -1 -346 -19 -365 -10 -11 -15 -25 -11 -31 6 -10 91 -53 117
-60 6 -1 26 -9 45 -17 51 -22 195 -57 227 -57 16 1 54 -1 85 -4 32 -2 60 -1
62 3 3 5 23 6 45 4 22 -2 60 1 83 7 94 24 208 63 208 71 0 8 -67 25 -82 21 -5
-1 -8 2 -8 8 0 5 -9 10 -20 10 -11 0 -20 5 -20 12 0 6 -3 8 -6 5 -8 -7 -59 26
-91 59 -31 34 -72 126 -69 157 2 15 0 29 -3 32 -13 7 -6 158 7 163 25 8 11 20
-30 26 -47 6 -83 13 -83 16 0 2 -19 7 -59 15 -87 18 -189 88 -224 153 -40 76
-55 228 -43 420 3 52 3 96 0 98 -4 2 -26 -13 -50 -34 -44 -40 -46 -62 -6 -62
32 0 46 -13 43 -35 -3 -18 -10 -20 -77 -18 -76 1 -175 30 -203 59 -8 8 -19 14
-23 14 -15 0 -64 56 -56 63 3 4 1 7 -5 7 -21 0 -45 73 -51 153 l-6 78 -20 -38z"/>
<path d="M609 1450 c-9 -8 -40 -35 -69 -60 -29 -25 -58 -50 -64 -55 -6 -6 -24
-20 -40 -33 l-28 -22 26 -10 c23 -8 31 -6 50 13 26 26 134 119 149 128 6 4 6
16 1 31 -8 22 -11 22 -25 8z"/>
<path d="M1670 1386 c0 -2 7 -7 16 -10 8 -3 12 -2 9 4 -6 10 -25 14 -25 6z"/>
<path d="M1677 1312 c-16 -18 -14 -32 6 -32 5 0 7 6 4 14 -3 7 0 19 6 25 6 6
9 11 6 11 -3 0 -13 -8 -22 -18z"/>
<path d="M1414 1269 c1 -8 7 -23 14 -34 12 -19 13 -18 6 5 -7 27 -24 51 -20
29z"/>
<path d="M1720 1271 c0 -5 5 -13 10 -16 6 -3 10 -2 10 4 0 5 -4 13 -10 16 -5
3 -10 2 -10 -4z"/>
<path d="M1740 1230 c0 -5 5 -10 11 -10 5 0 7 5 4 10 -3 6 -8 10 -11 10 -2 0
-4 -4 -4 -10z"/>
<path d="M1440 1190 c6 -11 13 -20 15 -20 3 0 5 9 5 20 0 11 -7 20 -15 20 -13
0 -14 -4 -5 -20z"/>
<path d="M1503 1165 c0 -9 4 -14 9 -13 5 2 10 8 10 13 0 5 -5 11 -10 13 -5 1
-9 -4 -9 -13z"/>
<path d="M696 1158 c-11 -33 -16 -108 -8 -108 5 0 18 8 29 18 11 9 35 29 53
44 35 29 33 33 -22 42 -15 3 -32 7 -38 11 -6 3 -12 0 -14 -7z"/>
<path d="M878 1111 c-1 -4 -34 -35 -73 -67 -107 -90 -110 -93 -110 -124 l-1
-28 28 19 c15 11 32 28 38 37 5 9 10 13 10 8 0 -5 15 8 34 28 19 20 39 36 45
36 6 0 11 4 11 9 0 5 18 23 41 39 38 29 40 31 21 41 -25 13 -39 14 -44 2z"/>
<path d="M974 1033 c-18 -16 -55 -48 -85 -73 -95 -80 -134 -115 -137 -123 -2
-4 -8 -5 -13 -1 -17 10 -9 -5 12 -25 21 -20 21 -20 44 5 12 13 28 24 34 24 7
0 10 4 6 9 -3 5 4 12 15 16 11 3 29 18 40 32 11 14 20 23 20 20 0 -4 16 9 35
27 19 19 47 43 61 53 20 15 25 25 20 41 -9 28 -15 28 -52 -5z"/>
<path d="M345 962 c3 -8 5 -18 5 -23 0 -6 8 -9 18 -8 38 3 52 -2 52 -19 0 -13
-7 -18 -22 -17 -13 1 -29 0 -35 -3 -19 -6 -15 -29 5 -29 42 0 52 -4 52 -22 0
-11 -7 -18 -17 -18 -42 0 -54 -4 -50 -15 2 -7 17 -13 33 -13 22 0 29 -5 29
-20 0 -15 -8 -21 -32 -23 -25 -2 -33 -8 -33 -23 0 -19 4 -21 65 -21 91 0 82
-12 83 120 0 64 2 123 4 131 2 11 -14 14 -80 15 -65 1 -81 -2 -77 -12z"/>
<path d="M1028 920 c-20 -19 -56 -51 -78 -70 -79 -67 -125 -113 -109 -107 9 3
21 1 27 -5 7 -7 16 -7 29 1 10 6 14 11 10 11 -5 0 15 19 45 42 96 75 126 110
119 138 l-6 25 -37 -35z"/>
<path d="M1020 748 c-30 -28 -47 -48 -38 -45 9 3 33 1 54 -4 28 -8 39 -8 44 2
8 11 6 86 -2 94 -1 2 -28 -19 -58 -47z"/>
<path d="M1095 690 c3 -5 11 -10 16 -10 6 0 7 5 4 10 -3 6 -11 10 -16 10 -6 0
-7 -4 -4 -10z"/>
<path d="M1115 590 c3 -5 11 -10 16 -10 6 0 7 5 4 10 -3 6 -11 10 -16 10 -6 0
-7 -4 -4 -10z"/>
<path d="M1158 551 c2 -23 6 -41 9 -41 2 0 20 12 39 27 39 29 36 38 -16 48
l-36 6 4 -40z"/>
<path d="M1320 542 c0 -4 -31 -34 -70 -66 -76 -62 -91 -82 -81 -108 5 -15 13
-11 51 23 77 69 131 114 141 117 5 2 9 12 9 23 0 14 -7 19 -25 19 -14 0 -25
-4 -25 -8z"/>
<path d="M370 480 c0 -5 5 -10 11 -10 5 0 7 5 4 10 -3 6 -8 10 -11 10 -2 0 -4
-4 -4 -10z"/>
<path d="M1410 453 c-19 -15 -55 -45 -80 -67 -25 -23 -60 -53 -79 -68 -25 -20
-31 -31 -26 -47 5 -18 9 -19 28 -9 12 6 35 24 51 40 15 16 44 41 64 56 20 15
52 42 71 60 29 29 32 35 20 47 -12 12 -19 11 -49 -12z"/>
<path d="M1448 327 c-25 -23 -68 -61 -95 -84 -40 -36 -44 -43 -26 -43 12 0 23
-6 26 -12 3 -9 13 -5 30 12 13 14 44 41 67 59 73 59 82 73 60 86 -6 4 -8 11
-5 16 14 21 -13 6 -57 -34z"/>
<path d="M1505 206 c-14 -13 -36 -31 -48 -40 -12 -8 -17 -15 -11 -15 15 -1 94
57 94 69 0 15 -6 12 -35 -14z"/>
</g>
</svg>
